<?xml version="1.0" encoding="UTF-8" standalone="no"?>
<!-- Created with Inkscape (http://www.inkscape.org/) -->

<svg
   xmlns:dc="http://purl.org/dc/elements/1.1/"
   xmlns:cc="http://creativecommons.org/ns#"
   xmlns:rdf="http://www.w3.org/1999/02/22-rdf-syntax-ns#"
   xmlns:svg="http://www.w3.org/2000/svg"
   xmlns="http://www.w3.org/2000/svg"
   xmlns:sodipodi="http://sodipodi.sourceforge.net/DTD/sodipodi-0.dtd"
   xmlns:inkscape="http://www.inkscape.org/namespaces/inkscape"
   width="210mm"
   height="297mm"
   viewBox="0 0 210 297"
   version="1.1"
   id="svg8"
   inkscape:version="0.92.1 r15371"
   sodipodi:docname="desenhando.svg.2017_08_30_22_23_06.0.svg">
  <defs
     id="defs2" />
  <sodipodi:namedview
     id="base"
     pagecolor="#ffffff"
     bordercolor="#666666"
     borderopacity="1.0"
     inkscape:pageopacity="0.0"
     inkscape:pageshadow="2"
     inkscape:zoom="0.98994949"
     inkscape:cx="509.69442"
     inkscape:cy="840.51923"
     inkscape:document-units="mm"
     inkscape:current-layer="layer1"
     showgrid="false"
     inkscape:window-width="1920"
     inkscape:window-height="1017"
     inkscape:window-x="-8"
     inkscape:window-y="-8"
     inkscape:window-maximized="1" />
  <metadata
     id="metadata5">
    <rdf:RDF>
      <cc:Work
         rdf:about="">
        <dc:format>image/svg+xml</dc:format>
        <dc:type
           rdf:resource="http://purl.org/dc/dcmitype/StillImage" />
        <dc:title />
      </cc:Work>
    </rdf:RDF>
  </metadata>
  <g
     inkscape:label="Camada 1"
     inkscape:groupmode="layer"
     id="layer1">
    <text
       xml:space="preserve"
       style="font-style:normal;font-weight:normal;font-size:22.35112762px;line-height:1.25;font-family:sans-serif;letter-spacing:0px;word-spacing:0px;fill:#000000;fill-opacity:1;stroke:none;stroke-width:0.55877823"
       x="-116.05971"
       y="19.227962"
       id="text4487"><tspan
         sodipodi:role="line"
         id="tspan4485"
         x="-116.05971"
         y="19.227962"
         style="font-style:normal;font-variant:normal;font-weight:normal;font-stretch:normal;font-family:'Yanone Kaffeesatz';-inkscape-font-specification:'Yanone Kaffeesatz';stroke-width:0.55877823">PIONEIRO</tspan></text>
    <text
       xml:space="preserve"
       style="font-style:normal;font-weight:normal;font-size:22.35112953px;line-height:1.25;font-family:sans-serif;letter-spacing:0px;word-spacing:0px;fill:#000000;fill-opacity:1;stroke:none;stroke-width:0.55877823"
       x="-117.44077"
       y="36.081821"
       id="text4487-7"><tspan
         sodipodi:role="line"
         id="tspan4485-2"
         x="-117.44077"
         y="36.081821"
         style="font-style:normal;font-variant:normal;font-weight:normal;font-stretch:normal;font-family:'Waukegan Hustle';-inkscape-font-specification:'Waukegan Hustle';stroke-width:0.55877823">PIONEIRO</tspan></text>
    <text
       xml:space="preserve"
       style="font-style:normal;font-weight:normal;font-size:22.35112953px;line-height:1.25;font-family:sans-serif;letter-spacing:0px;word-spacing:0px;fill:#000000;fill-opacity:1;stroke:none;stroke-width:0.55877823"
       x="-122.04945"
       y="64.993492"
       id="text4487-7-9"><tspan
         sodipodi:role="line"
         id="tspan4485-2-6"
         x="-122.04945"
         y="64.993492"
         style="font-style:normal;font-variant:normal;font-weight:normal;font-stretch:normal;font-family:Trashbox;-inkscape-font-specification:Trashbox;stroke-width:0.55877823">PIONEIRO</tspan></text>
    <text
       xml:space="preserve"
       style="font-style:normal;font-weight:normal;font-size:22.35112953px;line-height:1.25;font-family:sans-serif;letter-spacing:0px;word-spacing:0px;fill:#000000;fill-opacity:1;stroke:none;stroke-width:0.55877823"
       x="-119.80441"
       y="100.69807"
       id="text4487-7-9-8"><tspan
         sodipodi:role="line"
         id="tspan4485-2-6-1"
         x="-119.80441"
         y="100.69807"
         style="font-style:normal;font-variant:normal;font-weight:normal;font-stretch:normal;font-family:'Sugarpunch DEMO';-inkscape-font-specification:'Sugarpunch DEMO';letter-spacing:2.64583325px;stroke-width:0.55877823">PIONEIRO</tspan></text>
    <text
       xml:space="preserve"
       style="font-style:normal;font-weight:normal;font-size:22.35112953px;line-height:1.25;font-family:sans-serif;letter-spacing:0px;word-spacing:0px;fill:#000000;fill-opacity:1;stroke:none;stroke-width:0.55877823"
       x="-122.43912"
       y="127.75906"
       id="text4487-7-9-8-6"><tspan
         sodipodi:role="line"
         id="tspan4485-2-6-1-6"
         x="-122.43912"
         y="127.75906"
         style="font-style:normal;font-variant:normal;font-weight:normal;font-stretch:normal;font-family:REVOLUTION;-inkscape-font-specification:REVOLUTION;stroke-width:0.55877823">PIONEIRO</tspan></text>
    <text
       xml:space="preserve"
       style="font-style:normal;font-weight:normal;font-size:22.35112953px;line-height:1.25;font-family:sans-serif;letter-spacing:0px;word-spacing:0px;fill:#000000;fill-opacity:1;stroke:none;stroke-width:0.55877823"
       x="-124.03144"
       y="148.42418"
       id="text4487-7-9-8-6-3"><tspan
         sodipodi:role="line"
         id="tspan4485-2-6-1-6-8"
         x="-124.03144"
         y="148.42418"
         style="font-style:normal;font-variant:normal;font-weight:normal;font-stretch:normal;font-family:Karla;-inkscape-font-specification:Karla;stroke-width:0.55877823">PIONEIRO</tspan></text>
    <text
       xml:space="preserve"
       style="font-style:normal;font-weight:normal;font-size:22.35112953px;line-height:1.25;font-family:sans-serif;letter-spacing:0px;word-spacing:0px;fill:#000000;fill-opacity:1;stroke:none;stroke-width:0.55877823"
       x="-123.27549"
       y="171.48073"
       id="text4487-7-9-8-6-5"><tspan
         sodipodi:role="line"
         id="tspan4485-2-6-1-6-5"
         x="-123.27549"
         y="171.48073"
         style="font-style:normal;font-variant:normal;font-weight:normal;font-stretch:normal;font-family:Gymkhana;-inkscape-font-specification:Gymkhana;stroke-width:0.55877823">PIONEIRO</tspan></text>
    <text
       xml:space="preserve"
       style="font-style:normal;font-weight:normal;font-size:22.35112953px;line-height:1.25;font-family:sans-serif;letter-spacing:0px;word-spacing:0px;fill:#000000;fill-opacity:1;stroke:none;stroke-width:0.55877823"
       x="-125.54334"
       y="191.89145"
       id="text4487-7-9-8-6-35"><tspan
         sodipodi:role="line"
         id="tspan4485-2-6-1-6-0"
         x="-125.54334"
         y="191.89145"
         style="font-style:normal;font-variant:normal;font-weight:normal;font-stretch:normal;font-family:'Fredoka One';-inkscape-font-specification:'Fredoka One';stroke-width:0.55877823">PIONEIRO</tspan></text>
    <text
       xml:space="preserve"
       style="font-style:normal;font-weight:normal;font-size:22.35112953px;line-height:1.25;font-family:sans-serif;letter-spacing:0px;word-spacing:0px;fill:#000000;fill-opacity:1;stroke:none;stroke-width:0.55877823"
       x="-123.65347"
       y="214.948"
       id="text4487-7-9-8-6-1"><tspan
         sodipodi:role="line"
         id="tspan4485-2-6-1-6-57"
         x="-123.65347"
         y="214.948"
         style="font-style:normal;font-variant:normal;font-weight:normal;font-stretch:normal;font-family:'Bitstream Vera Sans';-inkscape-font-specification:'Bitstream Vera Sans';stroke-width:0.55877823">PIONEIRO</tspan></text>
    <text
       xml:space="preserve"
       style="font-style:normal;font-weight:normal;font-size:22.35112953px;line-height:1.25;font-family:sans-serif;letter-spacing:0px;word-spacing:0px;fill:#000000;fill-opacity:1;stroke:none;stroke-width:0.55877823"
       x="-121.88069"
       y="238.61232"
       id="text4487-7-9-8-6-1-8"><tspan
         sodipodi:role="line"
         id="tspan4485-2-6-1-6-57-3"
         x="-121.88069"
         y="238.61232"
         style="font-style:normal;font-variant:normal;font-weight:normal;font-stretch:normal;font-family:'ASPHALTIC SCRATCH ROUNDED PERSO';-inkscape-font-specification:'ASPHALTIC SCRATCH ROUNDED PERSO';stroke-width:0.55877823">PIONEIRO</tspan></text>
    <path
       style="opacity:1;fill:#fc0099;fill-opacity:1;stroke:#000000;stroke-width:0;stroke-miterlimit:4;stroke-dasharray:none;stroke-opacity:0.50847461;paint-order:markers fill stroke"
       d="M 50.142201,23.370604 H 161.10225 v 2.999999 H 50.142201 Z"
       id="rect4639-3"
       inkscape:connector-curvature="0"
       sodipodi:nodetypes="ccccc"
       inkscape:export-filename="C:\Users\janderson\Documents\projetos\pioneiro-comercio\anuncio-ml\logo.png"
       inkscape:export-xdpi="80.118103"
       inkscape:export-ydpi="80.118103" />
    <g
       aria-label="PIONEIRO"
       style="font-style:normal;font-weight:normal;font-size:22.35112953px;line-height:1.25;font-family:sans-serif;letter-spacing:0px;word-spacing:0px;fill:#fc0099;fill-opacity:1;stroke:none;stroke-width:0.55877823"
       id="text4487-7-9-8-6-7"
       inkscape:export-filename="C:\Users\janderson\Documents\projetos\pioneiro-comercio\anuncio-ml\logo.png"
       inkscape:export-xdpi="80.118103"
       inkscape:export-ydpi="80.118103"
       transform="translate(0.26726953,15.768902)">
      <path
         d="m 61.252127,19.607147 q 0,1.005801 -0.312916,1.899846 -0.312916,0.871694 -0.871694,1.58693 -0.558778,0.692885 -1.296366,1.18461 -0.737587,0.491725 -1.58693,0.715236 -0.20116,0.0447 -0.581129,0.134107 -0.379969,0.0894 -0.648183,0.0894 h -2.682135 v 5.297217 H 49.897753 V 13.997014 h 6.012454 q 0.156458,0 0.379969,0.0447 0.223511,0.02235 0.447023,0.0894 0.245862,0.0447 0.447022,0.111756 0.20116,0.0447 0.290565,0.06705 0.648183,0.245863 1.206961,0.58113 0.558778,0.335267 1.139908,0.98345 0.424671,0.447022 0.715236,1.050503 0.312916,0.581129 0.491725,1.095205 0.111755,0.379969 0.156457,0.782289 0.06705,0.402321 0.06705,0.804641 z m -3.330318,0 q 0,-0.312916 -0.111756,-0.648183 -0.08941,-0.335267 -0.312916,-0.625831 -0.20116,-0.312916 -0.514076,-0.536427 -0.312916,-0.245863 -0.737587,-0.357618 -0.134107,-0.0447 -0.312916,-0.06705 -0.156458,-0.02235 -0.178809,-0.02235 h -2.480975 v 4.537279 h 2.480975 q 0.0447,0 0.223511,-0.02235 0.178809,-0.0447 0.268214,-0.06705 0.849343,-0.223511 1.251663,-0.894045 0.424672,-0.670534 0.424672,-1.296366 z"
         style="font-style:normal;font-variant:normal;font-weight:normal;font-stretch:normal;line-height:1.25;font-family:REVOLUTION;-inkscape-font-specification:REVOLUTION;letter-spacing:1.58749998px;word-spacing:0.5291667px;fill:#fc0099;fill-opacity:1;stroke-width:0.55877823"
         id="path4676"
         inkscape:connector-curvature="0" />
      <path
         d="M 67.599388,30.514498 H 64.224367 V 14.019365 h 3.375021 z"
         style="font-style:normal;font-variant:normal;font-weight:normal;font-stretch:normal;line-height:1.25;font-family:REVOLUTION;-inkscape-font-specification:REVOLUTION;letter-spacing:1.58749998px;word-spacing:0.5291667px;fill:#fc0099;fill-opacity:1;stroke-width:0.55877823"
         id="path4678"
         inkscape:connector-curvature="0" />
      <path
         d="m 87.210961,22.289283 q 0,1.721037 -0.648183,3.218562 -0.648183,1.497526 -1.765739,2.615082 -1.117556,1.095206 -2.615082,1.743389 -1.497526,0.648182 -3.218563,0.648182 -1.721037,0 -3.218562,-0.648182 -1.497526,-0.648183 -2.637434,-1.76574 -1.117556,-1.117556 -1.765739,-2.615082 -0.648183,-1.497525 -0.648183,-3.218562 0,-1.698686 0.648183,-3.196212 0.648183,-1.519877 1.765739,-2.637433 1.139908,-1.139908 2.637434,-1.788091 1.497525,-0.648182 3.218562,-0.648182 1.743388,0 3.240914,0.670534 1.497526,0.648182 2.615082,1.78809 1.117557,1.117556 1.743388,2.637433 0.648183,1.497526 0.648183,3.196212 z m -3.352669,0 q 0,-0.648183 -0.178809,-1.341068 -0.17881,-0.692885 -0.58113,-1.318717 -0.40232,-0.625831 -1.028152,-1.139907 -0.625831,-0.536427 -1.519877,-0.871694 -0.178809,-0.06705 -0.424671,-0.0894 -0.245862,-0.0447 -0.424672,-0.0894 -0.20116,-0.0447 -0.469373,-0.06705 -0.268214,-0.02235 -0.312916,-0.02235 -0.514076,0 -1.072854,0.134107 -0.558779,0.134107 -1.117557,0.424671 -0.558778,0.290565 -1.072854,0.737588 -0.491725,0.447022 -0.871694,1.072854 -0.469374,0.782289 -0.603481,1.542228 -0.0447,0.245862 -0.0894,0.491725 -0.02235,0.245862 -0.02235,0.536427 0,0.983449 0.379969,1.877495 0.379969,0.871694 1.050503,1.542228 0.670534,0.670533 1.564579,1.072854 0.894045,0.379969 1.899846,0.379969 0.98345,0 1.877495,-0.379969 0.894045,-0.379969 1.564579,-1.028152 0.670534,-0.670534 1.050503,-1.542228 0.402321,-0.894045 0.402321,-1.922197 z"
         style="font-style:normal;font-variant:normal;font-weight:normal;font-stretch:normal;line-height:1.25;font-family:REVOLUTION;-inkscape-font-specification:REVOLUTION;letter-spacing:1.58749998px;word-spacing:0.5291667px;fill:#fc0099;fill-opacity:1;stroke-width:0.55877823"
         id="path4680"
         inkscape:connector-curvature="0" />
      <path
         d="m 104.6021,30.514498 h -3.35266 L 93.962967,19.964765 V 30.514498 H 90.587946 V 14.019365 h 3.35267 l 7.286464,10.549733 V 14.019365 h 3.37502 z"
         style="font-style:normal;font-variant:normal;font-weight:normal;font-stretch:normal;line-height:1.25;font-family:REVOLUTION;-inkscape-font-specification:REVOLUTION;letter-spacing:1.58749998px;word-spacing:0.5291667px;fill:#fc0099;fill-opacity:1;stroke-width:0.55877823"
         id="path4682"
         inkscape:connector-curvature="0" />
      <path
         d="M 119.81337,30.514498 H 108.12373 V 14.019365 h 11.68964 v 3.330318 h -8.31462 v 3.240914 h 4.13496 v 3.352669 h -4.13496 v 3.218563 h 8.31462 z"
         style="font-style:normal;font-variant:normal;font-weight:normal;font-stretch:normal;line-height:1.25;font-family:REVOLUTION;-inkscape-font-specification:REVOLUTION;letter-spacing:1.58749998px;word-spacing:0.5291667px;fill:#fc0099;fill-opacity:1;stroke-width:0.55877823"
         id="path4684"
         inkscape:connector-curvature="0" />
      <path
         d="m 126.57551,30.514498 h -3.37502 V 14.019365 h 3.37502 z"
         style="font-style:normal;font-variant:normal;font-weight:normal;font-stretch:normal;line-height:1.25;font-family:REVOLUTION;-inkscape-font-specification:REVOLUTION;letter-spacing:1.58749998px;word-spacing:0.5291667px;fill:#fc0099;fill-opacity:1;stroke-width:0.55877823"
         id="path4686"
         inkscape:connector-curvature="0" />
      <path
         d="m 160.81927,22.289283 c 0,1.147358 -0.21606,2.220212 -0.64819,3.218562 -0.43212,0.998351 -1.0207,1.870045 -1.76574,2.615082 -0.74503,0.730137 -1.61673,1.311267 -2.61508,1.743389 -0.99835,0.432121 -2.0712,0.648182 -3.21856,0.648182 -1.14736,0 -2.22021,-0.216061 -3.21856,-0.648182 -0.99835,-0.432122 -1.8775,-1.020702 -2.63744,-1.76574 -0.74503,-0.745037 -1.33361,-1.616731 -1.76574,-2.615082 -0.43212,-0.99835 -0.64818,-2.071204 -0.64818,-3.218562 0,-1.132457 0.21606,-2.197861 0.64818,-3.196212 0.43213,-1.013251 1.02071,-1.892396 1.76574,-2.637433 0.75994,-0.759939 1.63909,-1.355969 2.63744,-1.788091 0.99835,-0.432121 2.0712,-0.648182 3.21856,-0.648182 1.16226,0 2.24256,0.223511 3.24091,0.670534 0.99835,0.432121 1.87005,1.028151 2.61509,1.78809 0.74503,0.745037 1.32616,1.624182 1.74338,2.637433 0.43213,0.998351 0.64819,2.063755 0.64819,3.196212 z m -3.35267,0 c 0,-0.432122 -0.0596,-0.879145 -0.17881,-1.341068 -0.11921,-0.461923 -0.31292,-0.901496 -0.58113,-1.318717 -0.26821,-0.417221 -0.61093,-0.79719 -1.02815,-1.139907 -0.41723,-0.357618 -0.92385,-0.648183 -1.51988,-0.871694 -0.11921,-0.0447 -0.26076,-0.0745 -0.42467,-0.0894 -0.16391,-0.0298 -0.30546,-0.0596 -0.42467,-0.0894 -0.13411,-0.0298 -0.29057,-0.05215 -0.46938,-0.06705 -0.17881,-0.0149 -0.28311,-0.02235 -0.31291,-0.02235 -0.34272,0 -0.70034,0.0447 -1.07286,0.134107 -0.37252,0.0894 -0.74504,0.230962 -1.11755,0.424671 -0.37252,0.19371 -0.73014,0.439573 -1.07286,0.737588 -0.32781,0.298015 -0.61838,0.655633 -0.87169,1.072854 -0.31292,0.521526 -0.51408,1.035602 -0.60348,1.542228 l -0.0894,0.491725 c -0.0149,0.163908 -0.0223,0.342717 -0.0223,0.536427 0,0.655633 0.12666,1.281464 0.37997,1.877495 0.25331,0.581129 0.60348,1.095205 1.0505,1.542228 0.44703,0.447022 0.96855,0.80464 1.56458,1.072854 0.59603,0.253313 1.22932,0.379969 1.89985,0.379969 0.65563,0 1.28146,-0.126656 1.87749,-0.379969 0.59603,-0.253313 1.11756,-0.59603 1.56458,-1.028152 0.44703,-0.447023 0.7972,-0.961099 1.05051,-1.542228 0.26821,-0.59603 0.40232,-1.236762 0.40232,-1.922197 z"
         style="font-style:normal;font-variant:normal;font-weight:normal;font-stretch:normal;line-height:1.25;font-family:REVOLUTION;-inkscape-font-specification:REVOLUTION;letter-spacing:1.58749998px;word-spacing:0.5291667px;fill:#fc0099;fill-opacity:1;stroke-width:0.55877823"
         id="path4690"
         inkscape:connector-curvature="0"
         sodipodi:nodetypes="scccscccscccscccscsscccccsscccccscccsccccc" />
      <path
         inkscape:connector-curvature="0"
         d="m 142.03499,29.403832 -2.93733,1.662179 -3.74121,-6.281855 2.93733,-1.662179 z"
         style="font-style:normal;font-variant:normal;font-weight:normal;font-stretch:normal;font-size:22.35112953px;line-height:1.25;font-family:REVOLUTION;-inkscape-font-specification:REVOLUTION;letter-spacing:1.58749998px;word-spacing:0.5291667px;fill:#fc0099;fill-opacity:1;stroke:none;stroke-width:0.28859097"
         id="path4686-0"
         sodipodi:nodetypes="ccccc" />
      <path
         inkscape:connector-curvature="0"
         d="m 141.44513,19.629498 q 0,1.005801 -0.31292,1.899846 -0.31291,0.871694 -0.87169,1.58693 -0.55878,0.692885 -1.29637,1.18461 -0.73758,0.491725 -1.58693,0.715236 -0.20116,0.0447 -0.58113,0.134107 -0.37997,0.0894 -0.64818,0.0894 h -2.68213 v 5.297217 h -3.37503 V 14.019365 h 6.01246 q 0.15646,0 0.37997,0.0447 0.22351,0.02235 0.44702,0.0894 0.24586,0.0447 0.44702,0.111756 0.20116,0.0447 0.29057,0.06705 0.64818,0.245863 1.20696,0.58113 0.55878,0.335267 1.13991,0.98345 0.42467,0.447022 0.71523,1.050503 0.31292,0.581129 0.49173,1.095205 0.11175,0.379969 0.15645,0.782289 0.067,0.402321 0.067,0.804641 z m -3.33032,0 q 0,-0.312916 -0.11176,-0.648183 -0.0894,-0.335267 -0.31291,-0.625831 -0.20116,-0.312916 -0.51408,-0.536427 -0.31291,-0.245863 -0.73758,-0.357618 -0.13411,-0.0447 -0.31292,-0.06705 -0.15646,-0.02235 -0.17881,-0.02235 h -2.48097 v 4.537279 h 2.48097 q 0.0447,0 0.22351,-0.02235 0.17881,-0.0447 0.26822,-0.06705 0.84934,-0.223511 1.25166,-0.894045 0.42467,-0.670534 0.42467,-1.296366 z"
         style="font-style:normal;font-variant:normal;font-weight:normal;font-stretch:normal;font-size:22.35112953px;line-height:1.25;font-family:REVOLUTION;-inkscape-font-specification:REVOLUTION;letter-spacing:1.58749998px;word-spacing:0.5291667px;fill:#fc0099;fill-opacity:1;stroke:none;stroke-width:0.55877823"
         id="path4676-2" />
    </g>
    <path
       style="opacity:1;fill:#fc0099;fill-opacity:1;stroke:#000000;stroke-width:0;stroke-miterlimit:4;stroke-dasharray:none;stroke-opacity:0.50847461;paint-order:markers fill stroke"
       d="M 50.143346,49.487728 H 161.10339 v 2.999999 H 50.143346 Z"
       id="rect4639-3-1"
       inkscape:connector-curvature="0"
       sodipodi:nodetypes="ccccc"
       inkscape:export-filename="C:\Users\janderson\Documents\projetos\pioneiro-comercio\anuncio-ml\logo.png"
       inkscape:export-xdpi="80.118103"
       inkscape:export-ydpi="80.118103" />
    <path
       style="opacity:1;fill:#fc0099;fill-opacity:1;stroke:#fc0099;stroke-width:3.38955832;stroke-linejoin:round;stroke-miterlimit:4;stroke-dasharray:none;stroke-opacity:1;paint-order:stroke fill markers"
       d="M 42.515925,90.677576 178.70933,83.443266 168.20145,125.32447 45.356251,116.48221 Z"
       id="rect6897"
       inkscape:connector-curvature="0"
       sodipodi:nodetypes="ccccc" />
    <rect
       style="opacity:1;fill:#ff0d7a;fill-opacity:1;stroke:none;stroke-width:0;stroke-linecap:round;stroke-linejoin:round;stroke-miterlimit:1;stroke-dasharray:none;stroke-dashoffset:0;stroke-opacity:1;paint-order:markers fill stroke"
       id="rect7174"
       width="135.96881"
       height="25.657871"
       x="62.610306"
       y="-34.193565"
       ry="3.5635934"
       transform="rotate(-15.382313)" />
    <text
       xml:space="preserve"
       style="font-style:normal;font-weight:normal;font-size:23.45886803px;line-height:1.25;font-family:sans-serif;letter-spacing:0px;word-spacing:0px;fill:#fffefe;fill-opacity:1;stroke:#ffffff;stroke-width:0;stroke-linecap:round;stroke-linejoin:round;stroke-miterlimit:1;stroke-dasharray:none;stroke-dashoffset:0;stroke-opacity:1;paint-order:markers fill stroke"
       x="65.771301"
       y="-12.582221"
       id="text4487-7-9-8-6-35-5"
       transform="rotate(-15.382313)"><tspan
         sodipodi:role="line"
         id="tspan4485-2-6-1-6-0-5"
         x="65.771301"
         y="-12.582221"
         style="font-style:normal;font-variant:normal;font-weight:normal;font-stretch:normal;font-family:'Fredoka One';-inkscape-font-specification:'Fredoka One';letter-spacing:2.77696276px;fill:#fffefe;fill-opacity:1;stroke:none;stroke-width:0;stroke-linecap:round;stroke-linejoin:round;stroke-miterlimit:1;stroke-dasharray:none;stroke-dashoffset:0;stroke-opacity:1;paint-order:markers fill stroke">PIONEIRO</tspan></text>
    <text
       xml:space="preserve"
       style="font-style:normal;font-weight:normal;font-size:22.35112953px;line-height:1.25;font-family:sans-serif;letter-spacing:0px;word-spacing:0px;fill:#ffffff;fill-opacity:1;stroke:none;stroke-width:0.55877823"
       x="51.711315"
       y="112.09158"
       id="text4487-7-9-8-6-35-0"><tspan
         sodipodi:role="line"
         id="tspan4485-2-6-1-6-0-4"
         x="51.711315"
         y="112.09158"
         style="font-style:normal;font-variant:normal;font-weight:normal;font-stretch:normal;font-family:'Fredoka One';-inkscape-font-specification:'Fredoka One';letter-spacing:1.32291663px;fill:#ffffff;fill-opacity:1;stroke-width:0.55877823">PIONEIRO</tspan></text>
    <text
       xml:space="preserve"
       style="font-style:normal;font-weight:normal;font-size:22.35112953px;line-height:1.25;font-family:sans-serif;letter-spacing:0px;word-spacing:0px;fill:#fc0099;fill-opacity:1;stroke:none;stroke-width:0.55877823"
       x="54.0639"
       y="238.13075"
       id="text4487-7-9-8-6-7-6"
       inkscape:export-filename="C:\Users\janderson\Documents\projetos\pioneiro-comercio\anuncio-ml\logo.png"
       inkscape:export-xdpi="96"
       inkscape:export-ydpi="96"><tspan
         sodipodi:role="line"
         id="tspan4485-2-6-1-6-81-9"
         x="54.0639"
         y="238.13075"
         style="font-style:normal;font-variant:normal;font-weight:normal;font-stretch:normal;line-height:1.25;font-family:REVOLUTION;-inkscape-font-specification:REVOLUTION;letter-spacing:1.58749998px;word-spacing:0.52916676px;fill:#fc0099;fill-opacity:1;stroke-width:0.55877823">PIONEIRO</tspan></text>
    <path
       style="opacity:1;fill:#fc0099;fill-opacity:1;stroke:#000000;stroke-width:0;stroke-miterlimit:4;stroke-dasharray:none;stroke-opacity:0.50847461;paint-order:markers fill stroke"
       d="m 85.538067,141.74409 22.694283,-7.14034 v 35.07234 H 85.538067 Z"
       id="rect4639-3-8-5"
       inkscape:connector-curvature="0"
       sodipodi:nodetypes="ccccc" />
    <path
       style="opacity:1;fill:#fc0099;fill-opacity:1;stroke:#000000;stroke-width:0;stroke-miterlimit:4;stroke-dasharray:none;stroke-opacity:0.50847461;paint-order:markers fill stroke"
       d="m 110.8782,134.60375 22.69428,7.14034 v 27.932 H 110.8782 Z"
       id="rect4639-3-8-5-8"
       inkscape:connector-curvature="0"
       sodipodi:nodetypes="ccccc" />
    <rect
       style="opacity:1;fill:#fc0099;fill-opacity:1;stroke:#000000;stroke-width:0;stroke-miterlimit:4;stroke-dasharray:none;stroke-opacity:0.50847461;paint-order:markers fill stroke"
       id="rect4639-3-8-7"
       width="22.159744"
       height="2.999999"
       x="-185.67043"
       y="46.875786"
       inkscape:export-filename="C:\Users\janderson\Documents\projetos\pioneiro-comercio\anuncio-ml\logo.png"
       inkscape:export-xdpi="96"
       inkscape:export-ydpi="96"
       transform="rotate(-90)" />
    <rect
       style="opacity:1;fill:none;fill-opacity:0.29166667;stroke:#fc0099;stroke-width:2.62839723;stroke-linecap:round;stroke-linejoin:miter;stroke-miterlimit:4;stroke-dasharray:none;stroke-opacity:1;paint-order:normal"
       id="rect4612"
       width="141.29362"
       height="30.458935"
       x="39.341469"
       y="215.86923"
       ry="6.9925547"
       rx="62.727261" />
    <circle
       style="opacity:1;fill:none;fill-opacity:0.29166667;stroke:#fc0099;stroke-width:1.69407415;stroke-linecap:round;stroke-linejoin:miter;stroke-miterlimit:4;stroke-dasharray:none;stroke-opacity:1;paint-order:normal"
       id="path4614"
       cx="47.873276"
       cy="230.83815"
       r="0.90807092" />
    <circle
       style="opacity:1;fill:none;fill-opacity:0.29166667;stroke:#fc0099;stroke-width:1.69407415;stroke-linecap:round;stroke-linejoin:miter;stroke-miterlimit:4;stroke-dasharray:none;stroke-opacity:1;paint-order:normal"
       id="path4614-3"
       cx="172.65613"
       cy="231.25169"
       r="0.90807092" />
  </g>
</svg>
